name analog
datacolumns 19
datarows 18
range 0.0 0.0085
endheader
time	ground_force_vx	ground_force_vy	ground_force_vz	ground_force_px	ground_force_py	ground_force_pz	l_ground_force_vx	l_ground_force_vy	l_ground_force_vz	l_ground_force_px	l_ground_force_py	l_ground_force_pz	ground_torque_x	ground_torque_y	ground_torque_z	l_ground_torque_x	l_ground_torque_y	l_ground_torque_z
0.0	-0.0	-0.0	-0.0	-3.306075096130371	26.760114669799805	-418.1441345214844	0.125297725200653	-27.57732391357422	-370.4498901367188	-0.0	-0.0	-0.0	-0.0	-0.0	-0.0	100611.953125	5890.6376953125	-2676.67919921875
0.0005	-0.0	-0.0	-0.0	-3.017374277114868	26.670902252197266	-416.5241394042969	0.1618296205997467	-27.64468765258789	-368.35498046875	-0.0	-0.0	-0.0	-0.0	-0.0	-0.0	100591.0859375	5789.6396484375	-2735.998291015625
0.001	-0.0	-0.0	-0.0	-2.813101053237915	26.665834426879883	-418.9342041015625	-0.020855002105236	-27.17188262939453	-368.3753967285156	-0.0	-0.0	-0.0	-0.0	-0.0	-0.0	100390.2421875	5738.52197265625	-2699.370361328125
0.0015	-0.0	-0.0	-0.0	-2.6030385494232178	26.7025146484375	-419.4327087402344	0.1824222207069397	-27.46306610107422	-367.88189697265625	-0.0	-0.0	-0.0	-0.0	-0.0	-0.0	100192.640625	5746.23486328125	-2640.00927734375
0.002	-0.0	-0.0	-0.0	-2.975925207138061	26.84422492980957	-420.7189636230469	0.1251676976680755	-27.32285690307617	-368.00579833984375	-0.0	-0.0	-0.0	-0.0	-0.0	-0.0	100317.1796875	5859.4453125	-2660.767578125
0.0025	-0.0	-0.0	-0.0	-2.891309261322021	26.969970703125	-420.28411865234375	0.2343885153532028	-27.30720329284668	-367.1017150878906	-0.0	-0.0	-0.0	-0.0	-0.0	-0.0	100136.609375	5680.32958984375	-2624.07568359375
0.003	-0.0	-0.0	-0.0	-2.7697811126708984	27.059139251708984	-421.6799926757813	0.3503549695014953	-26.87013816833496	-366.8602600097656	-0.0	-0.0	-0.0	-0.0	-0.0	-0.0	99961.703125	5659.83154296875	-2735.66748046875
0.0035	-0.0	-0.0	-0.0	-2.854736328125	27.02269172668457	-421.00677490234375	0.2501303851604461	-26.88165664672852	-365.9739074707031	-0.0	-0.0	-0.0	-0.0	-0.0	-0.0	99650.171875	5886.82568359375	-2664.257080078125
0.004	-0.0	-0.0	-0.0	-2.4451537132263184	27.06705474853516	-423.045166015625	0.3024492859840393	-26.90195655822754	-365.7679748535156	-0.0	-0.0	-0.0	-0.0	-0.0	-0.0	99477.015625	5926.8515625	-2594.157470703125
0.0045000000000000005	-0.0	-0.0	-0.0	-2.283041000366211	26.901050567626957	-422.96533203125	0.4112501144409179	-26.68922996520996	-364.9906005859375	-0.0	-0.0	-0.0	-0.0	-0.0	-0.0	99296.71875	5641.8095703125	-2641.18505859375
0.005	-0.0	-0.0	-0.0	-2.299488067626953	27.16837310791016	-422.129150390625	0.6171669960021973	-26.444271087646484	-364.2139892578125	-0.0	-0.0	-0.0	-0.0	-0.0	-0.0	99201.6484375	5790.61376953125	-2475.090087890625
0.0055	-0.0	-0.0	-0.0	-2.270042657852173	27.131977081298828	-425.1634521484375	0.4598358869552612	-26.588462829589844	-363.1961364746094	-0.0	-0.0	-0.0	-0.0	-0.0	-0.0	99208.921875	5564.51416015625	-2646.52587890625
0.006	-0.0	-0.0	-0.0	-1.982408046722412	26.99319648742676	-424.6533508300781	0.4633739590644836	-26.37216567993164	-363.7516174316406	-0.0	-0.0	-0.0	-0.0	-0.0	-0.0	98935.8984375	5655.10302734375	-2604.707275390625
0.006500000000000001	-0.0	-0.0	-0.0	-1.9626312255859373	27.304094314575195	-424.8874816894531	0.4961252510547638	-26.67314910888672	-362.5616149902344	-0.0	-0.0	-0.0	-0.0	-0.0	-0.0	98883.125	5527.3935546875	-2611.363037109375
0.007	-0.0	-0.0	-0.0	-1.9793076515197756	27.34637260437012	-425.0850830078125	0.496149480342865	-26.6043758392334	-363.11767578125	-0.0	-0.0	-0.0	-0.0	-0.0	-0.0	99011.765625	5624.41455078125	-2616.840087890625
0.0075	-0.0	-0.0	-0.0	-1.9599053859710691	26.917381286621094	-426.641357421875	0.5517871975898743	-26.319862365722656	-361.8630676269531	-0.0	-0.0	-0.0	-0.0	-0.0	-0.0	98743.421875	5648.7861328125	-2550.8720703125
0.008	-0.0	-0.0	-0.0	-1.6588079929351809	27.220932006835938	-426.2215576171875	0.6376057863235474	-26.24809837341309	-361.7101440429688	-0.0	-0.0	-0.0	-0.0	-0.0	-0.0	98661.03125	5560.78173828125	-2723.253662109375
0.0085	-0.0	-0.0	-0.0	-1.5141799449920654	27.29316711425781	-428.8941040039063	0.1440507918596267	-26.441408157348636	-361.5897216796875	-0.0	-0.0	-0.0	-0.0	-0.0	-0.0	98395.171875	5567.99853515625	-2599.427490234375
